Coordinates
version=1
nRows=32
nColumns=12
inDegrees=yes

Units are S.I. units (second, meters, Newtons, ...)
Angles are in degrees

endheader
time	SC_y	SC_z	SC_x	AC_y	AC_z	AC_x	GH_y	GH_z	GH_yy	EL_x	PS_y
       0.0               -54.1          4.859           14.6          55.88         -12.95          11.37          19.22          30.73         -126.3           68.7          112.9
    0.0364               -54.1          4.861           14.6          55.88         -12.95          11.37          19.24          30.72         -126.3          68.69          112.9
    0.0728               -54.1          4.862           14.6          55.88         -12.95          11.37          19.25          30.71         -126.3          68.68          112.9
    0.1092               -54.1          4.864          14.61          55.88         -12.95          11.37          19.27          30.71         -126.3          68.67          112.9
    0.1456               -54.1          4.865          14.61          55.88         -12.95          11.37          19.29           30.7         -126.3          68.67          112.9
     0.182               -54.1          4.867          14.61          55.88         -12.95          11.36          19.31          30.69         -126.2          68.65          112.9
    0.2184               -54.1          4.869          14.61          55.89         -12.95          11.36          19.33          30.68         -126.2          68.64          112.9
    0.2548               -54.1          4.871          14.62          55.89         -12.95          11.36          19.35          30.67         -126.2          68.63          112.9
    0.2912               -54.1          4.874          14.62          55.89         -12.95          11.36          19.38          30.67         -126.2          68.62          112.9
    0.3276               -54.1          4.876          14.62          55.89         -12.95          11.36           19.4          30.66         -126.2          68.61          112.9
     0.364               -54.1          4.879          14.62           55.9         -12.96          11.36          19.43          30.64         -126.2          68.59          113.0
    0.4004               -54.1          4.881          14.63           55.9         -12.96          11.36          19.46          30.63         -126.2          68.58          113.0
    0.4368               -54.1          4.884          14.63           55.9         -12.96          11.35           19.5          30.62         -126.2          68.56          113.0
    0.4732              -54.09          4.888          14.64          55.91         -12.96          11.35          19.53          30.61         -126.2          68.54          113.0
    0.5096              -54.09          4.891          14.64          55.91         -12.96          11.35          19.57          30.59         -126.2          68.52          113.0
     0.546              -54.09          4.895          14.65          55.91         -12.96          11.35          19.61          30.58         -126.2           68.5          113.0
    0.5824              -54.09          4.899          14.65          55.92         -12.96          11.34          19.66          30.56         -126.1          68.47          113.0
    0.6188              -54.09          4.904          14.66          55.92         -12.96          11.34          19.71          30.54         -126.1          68.45          113.0
    0.6552              -54.09          4.909          14.66          55.93         -12.97          11.34          19.76          30.52         -126.1          68.42          113.1
    0.6916              -54.09          4.914          14.67          55.93         -12.97          11.33          19.82           30.5         -126.1          68.39          113.1
     0.728              -54.08           4.92          14.68          55.94         -12.97          11.33          19.88          30.47         -126.1          68.36          113.1
    0.7643              -54.08          4.926          14.68          55.95         -12.97          11.33          19.95          30.44         -126.0          68.32          113.1
    0.8007              -54.08          4.934          14.69          55.95         -12.98          11.32          20.03          30.41         -126.0          68.28          113.1
    0.8371              -54.08          4.942           14.7          55.96         -12.98          11.32          20.12          30.38         -126.0          68.23          113.2
    0.8735              -54.07           4.95          14.71          55.97         -12.98          11.31          20.22          30.34         -126.0          68.18          113.2
    0.9099              -54.07           4.96          14.73          55.98         -12.99           11.3          20.32           30.3         -125.9          68.13          113.2
    0.9463              -54.07          4.971          14.74          55.99         -12.99           11.3          20.45          30.25         -125.9          68.07          113.3
    0.9827              -54.06          4.984          14.76          56.01         -12.99          11.29          20.58           30.2         -125.9           68.0          113.3
     1.019              -54.06          4.998          14.77          56.02          -13.0          11.28          20.73          30.14         -125.8          67.92          113.4
     1.056              -54.05          5.014          14.79          56.04         -13.01          11.27          20.91          30.07         -125.8          67.83          113.4
     1.092              -54.05          5.032          14.82          56.06         -13.01          11.26          21.11           30.0         -125.7          67.72          113.5
     1.128              -54.04          5.053          14.84          56.08         -13.02          11.24          21.34          29.91         -125.6           67.6          113.6
